<svg id="OBJECTS" xmlns="http://www.w3.org/2000/svg" viewBox="0 0 333.7 74.31"><defs><style>.cls-1{fill:none;}.cls-2,.cls-6{fill:#e3a645;}.cls-3,.cls-7{fill:#d0665b;}.cls-4{fill:#9acce5;}.cls-5{fill:#434043;}.cls-6{font-size:65.21px;}.cls-6,.cls-7{font-family:MyriadPro-Regular, Myriad Pro;}.cls-7{font-size:65.21px;}</style></defs><path class="cls-1" d="M149,230.12c1.28,2.43,2.54,4.95,3.79,7.45.66,1.34,1.33,2.69,2,4h1.83c-1.87-3.61-3.78-7.69-5.55-11.46Z" transform="translate(-129.42 -212.58)"/><path class="cls-1" d="M211.39,246.16c0-.13.06-.26.08-.39.07-.35.14-.71.2-1.1h-4.41a5,5,0,0,1-.42,1.23c-1.42,2.38-36.84,7.67-42.43,6.24-1.68-.42-3.83-3.41-6.1-7.47h-1.89c3.49,6.55,7,11.87,10.57,11.87,13.44,0,39.9-4.52,43.48-8.1A5.06,5.06,0,0,0,211.39,246.16Z" transform="translate(-129.42 -212.58)"/><path class="cls-1" d="M207.8,241.58H212c.17-1.84.3-3.82.41-5.64s.25-3.89.42-5.82H209C208.67,234,208.25,238.41,207.8,241.58Z" transform="translate(-129.42 -212.58)"/><path class="cls-2" d="M151.1,230.12c1.77,3.77,3.68,7.85,5.55,11.46H207.8c.45-3.17.87-7.54,1.19-11.46Z" transform="translate(-129.42 -212.58)"/><path class="cls-3" d="M209.57,219.33H147.4c.7,1.36,1.45,2.92,2.25,4.6h59.59C209.38,222.08,209.49,220.47,209.57,219.33Z" transform="translate(-129.42 -212.58)"/><path class="cls-4" d="M164.41,253.35c5.59,1.43,41-3.87,42.43-6.24a5,5,0,0,0,.42-1.23H158.31C160.58,249.94,162.73,252.92,164.41,253.35Z" transform="translate(-129.42 -212.58)"/><path class="cls-5" d="M221,214.11c-5.1,0-7,5.86-7.83,12.92H147.33c-4.59-8.08-9.7-14.45-16.37-14.45a1.55,1.55,0,0,0,0,3.09c4.75,0,9,5,12.78,11.36h-.57a1.55,1.55,0,0,0,0,3.09h2.33c1.58,2.87,3.09,5.9,4.54,8.83.44.89.88,1.76,1.32,2.63h-.55a1.55,1.55,0,1,0,0,3.09h2.12c4.38,8.47,8.58,15,14.06,15,9.5,0,29.35-2.59,39.72-6-7.62,6.57-22.58,9.51-34.3,11.81-11.33,2.23-16.81,3.44-17.37,6.68a3.11,3.11,0,0,0,.76,2.67c1.76,2,6.27,2.31,8.93,2.31v1.87a4.14,4.14,0,1,0,3.09,0V277h34.05v1.91a4.14,4.14,0,1,0,3.09,0V277H213a1.55,1.55,0,1,0,0-3.09H166.2c-4.1.2-7.8-.55-8.13-1.29.7-1.42,8.93-3,14.94-4.22,16.4-3.22,38.79-7.63,41.46-21.91a2.21,2.21,0,0,1,.05-.25l0-.14v0c.09-.45.17-.92.24-1.42h1.35a1.55,1.55,0,0,0,0-3.09h-1c.14-1.62.27-3.43.39-5.44s.26-4,.44-6h1.08a1.55,1.55,0,1,0,0-3.09h-.74c.69-5.34,2-9.84,4.71-9.84a1.54,1.54,0,1,0,0-3.08Zm-64.6,30.56h55.25c-.06.39-.13.75-.2,1.1,0,.13-.05.26-.08.39a5.06,5.06,0,0,1-.92,2.28c-3.58,3.58-30,8.1-43.48,8.1C163.46,256.54,159.91,251.22,156.42,244.67Zm56-8.73c-.11,1.82-.24,3.8-.41,5.64H154.82c-.68-1.32-1.35-2.67-2-4-1.25-2.5-2.51-5-3.79-7.45h63.85C212.7,232.05,212.58,234,212.45,235.94Z" transform="translate(-129.42 -212.58)"/><text class="cls-6" transform="translate(105.53 56.29)">Shop</text><text class="cls-7" transform="translate(246.65 56.29)">GO</text><rect class="cls-4" x="99.04" y="1.28" width="1.91" height="73.03" rx="0.93"/></svg>