<svg id="Capa_1" data-name="Capa 1" xmlns="http://www.w3.org/2000/svg" viewBox="0 0 1834.94 1546.81"><defs><style>.cls-1{fill:#8ccdc8;}.cls-2{fill:#e94751;}.cls-3{fill:#f7a93e;}.cls-4{fill:#f4a5a1;}.cls-5{fill:#161010;}.cls-6{fill:#e48e8c;}.cls-7{fill:#b56868;}.cls-8{fill:#3f3132;}.cls-9{fill:#c47d27;}.cls-10{fill:#8c5618;}.cls-11{fill:#63a5a0;}.cls-12{fill:#3a6360;}.cls-13{fill:#d23746;}.cls-14{fill:#8e2534;}</style></defs><path class="cls-1" d="M1510.8,1294.16H1313.19c-.35,10-.81,17.46-1.08,21.26a13,13,0,1,1-17.64-.29c0-.52.08-1.11.13-1.85.16-2.35.38-5.82.59-10.21.13-2.63.26-5.64.38-8.91H1094.44c.33,10.43.84,17.84,1.07,21a12.93,12.93,0,0,1-8.63,22.61,13,13,0,0,1-9-22.31c-.28-3.82-.75-11.23-1.06-21.27H971.28l-64.64,534.75H1456.1Z" transform="translate(-143.19 -282.1)"/><path class="cls-2" d="M747.35,1045.74H549.58c-.34,10.1-.73,17.5-1,21.23a13,13,0,1,1-17.63-.23c0-.69.09-1.51.15-2.59.16-2.89.38-7.14.59-12.53.08-1.82.15-3.81.22-5.88H331.14c.33,10.45.75,17.81.95,21a13,13,0,1,1-17.63.25c-.23-3.74-.62-11.11-.94-21.24H207.83l-64.64,783.17H692.65Z" transform="translate(-143.19 -282.1)"/><path class="cls-3" d="M943.06,653.55c-.4,11.82-.86,20.48-1.12,24.85a15.22,15.22,0,1,1-20.64-.28c.05-.8.11-1.76.18-3,.19-3.39.44-8.36.7-14.67.08-2.13.17-4.46.25-6.88H687.34c.39,12.23.88,20.84,1.12,24.57a15.18,15.18,0,1,1-20.64.29c-.26-4.38-.73-13-1.1-24.86H543l-5,77.53a66.72,66.72,0,0,1,14.77,6.17c10,5.67,18.53,13.73,25.83,23.39,14.58,19.35,24.54,45.09,31.74,73.52C624.65,891,627.62,959,627.64,1007.39c0,15-.3,28.08-.64,38.35H747.35l99.45,783.17h59.84l64.64-534.75h105.54c-.18-5.93-.32-12.75-.32-20.31,0-25.56,1.47-59.22,7.29-93.2s16-68.32,34-95.36c9.32-13.91,20.93-25.88,35.12-34.43l21.65-397.31Z" transform="translate(-143.19 -282.1)"/><path class="cls-4" d="M1680.91,1045.74c-.34,10.1-.73,17.5-1,21.23a13,13,0,1,1-17.63-.23c0-.69.09-1.51.15-2.59.16-2.89.38-7.14.6-12.53.07-1.82.14-3.81.21-5.88H1462.47c.33,10.45.75,17.81,1,21a13,13,0,1,1-17.63.25c-.23-3.74-.63-11.11-1-21.24H1339.16L1338,1059.8c1.18,1.15,2.38,2.27,3.5,3.48,14.79,16.07,24.91,37.5,32.17,61,14.44,47,17.39,102.91,17.42,142.7,0,10.31-.21,19.49-.48,27.17H1510.8l99.45,534.75H1824l54.7-783.17Z" transform="translate(-143.19 -282.1)"/><path class="cls-5" d="M1650.27,746.05a49.94,49.94,0,0,1,25.16,6.52c13,7.36,24.21,21.25,33.2,40,13.51,28,21.88,66.22,26.64,105.09s6.09,78.5,6.09,109.76c0,15.07-.3,28.16-.65,38.35h17.62c.35-10.28.64-23.34.64-38.35,0-48.4-3-116.38-17.29-173.23-7.2-28.44-17.15-54.17-31.74-73.52-7.3-9.66-15.83-17.72-25.83-23.39a67.65,67.65,0,0,0-33.84-8.81,87.73,87.73,0,0,0-39.54,9c-.68.34-1.31.76-2,1.11A79.82,79.82,0,0,1,1624,750.91,71,71,0,0,1,1650.27,746.05Z" transform="translate(-143.19 -282.1)"/><path class="cls-5" d="M1739.63,1068.55a8.81,8.81,0,0,0,17.57,1.22s.07-1,.18-2.89a12.84,12.84,0,0,0-17.64,0c0,.2,0,.44,0,.61C1739.66,1068.19,1739.63,1068.54,1739.63,1068.55Z" transform="translate(-143.19 -282.1)"/><path class="cls-5" d="M1532.82,1077.94a8.81,8.81,0,0,0,8.14-9.43h0s0-.29-.06-.92c0-.26,0-.59-.07-1a12.84,12.84,0,0,0-17.61.46c.1,1.72.17,2.68.17,2.72A8.82,8.82,0,0,0,1532.82,1077.94Z" transform="translate(-143.19 -282.1)"/><path class="cls-5" d="M1559.09,843.74c8.08-28.21,19.41-53.14,34.36-70.43A88.27,88.27,0,0,1,1608,759.83a57.68,57.68,0,0,0-10-7.26,51.84,51.84,0,0,0-5.71-2.78c-11.8,10-21.57,22.85-29.6,37.49-17.83,32.56-27.84,74.06-33.65,115.28s-7.24,82.13-7.24,113.2c0,11.53.2,21.67.46,30h17.62c-.27-8.25-.47-18.4-.47-30C1539.39,969.29,1542.83,900.18,1559.09,843.74Z" transform="translate(-143.19 -282.1)"/><polygon class="cls-6" points="1735.49 763.64 1680.79 1546.81 1757.87 1502.68 1834.94 1546.81 1735.49 763.64"/><polygon class="cls-4" points="1680.79 1546.81 1834.94 1546.81 1757.87 1502.68 1680.79 1546.81"/><path class="cls-7" d="M1876.61,1107.6l20.93,664a3.52,3.52,0,1,0,7-.22l-20.93-664a3.52,3.52,0,1,0-7,.23Z" transform="translate(-143.19 -282.1)"/><path class="cls-4" d="M1367.42,1177.53c-4.73-31.64-13-62.62-26.34-85.16-1.63-2.77-3.35-5.37-5.11-7.87l-17.31,209.66H1373c.27-7.62.49-16.82.49-27.17C1373.48,1241.49,1372.18,1209.18,1367.42,1177.53Z" transform="translate(-143.19 -282.1)"/><path class="cls-7" d="M1670.39,1077.94a8.8,8.8,0,0,1-8.17-9.39s0-.36.07-1.1c0-.19,0-.48,0-.71a13,13,0,1,0,17.63.23c-.11,1.79-.17,2.77-.18,2.79A8.79,8.79,0,0,1,1670.39,1077.94Z" transform="translate(-143.19 -282.1)"/><path class="cls-7" d="M1463.54,1068.51h0a8.8,8.8,0,1,1-17.56,1.29s-.08-1-.18-2.82a13,13,0,1,0,17.63-.25c0,.32,0,.63,0,.86C1463.52,1068.22,1463.54,1068.51,1463.54,1068.51Z" transform="translate(-143.19 -282.1)"/><path class="cls-8" d="M1446,1069.8a8.8,8.8,0,1,0,17.56-1.29h0s0-.29-.06-.92c0-.23,0-.54,0-.86-.21-3.18-.63-10.54-1-21-.26-8.25-.47-18.4-.47-30,0-46.48,3.42-115.59,19.67-172,8.09-28.22,19.42-53.15,34.37-70.44a80.77,80.77,0,0,1,25.11-20.06,70.05,70.05,0,0,1,31.71-7.2,50.49,50.49,0,0,1,19.44,3.74,51.84,51.84,0,0,1,5.71,2.78,57.68,57.68,0,0,1,10,7.26c8.83,7.86,16.6,19,23.2,32.71,13.52,28,21.89,66.22,26.64,105.1s6.1,78.5,6.09,109.75c0,15.07-.3,28.16-.65,38.35-.07,2.07-.14,4.06-.21,5.88-.22,5.39-.44,9.64-.6,12.53-.06,1.08-.11,1.9-.15,2.59,0,.23,0,.52,0,.71,0,.74-.07,1.09-.07,1.1a8.8,8.8,0,1,0,17.56,1.21s.07-1,.18-2.79c.22-3.73.61-11.13,1-21.23.35-10.27.64-23.34.65-38.35,0-48.4-3-116.38-17.3-173.23-7.19-28.43-17.15-54.17-31.73-73.52a100.79,100.79,0,0,0-8.49-9.73,79.82,79.82,0,0,0-15.29-12.33c-.69-.42-1.34-.93-2-1.33a67.68,67.68,0,0,0-33.84-8.81,87.78,87.78,0,0,0-39.55,9c-20.57,10.25-36.14,28.15-48,49.81-17.82,32.56-27.84,74.06-33.65,115.28s-7.24,82.13-7.24,113.21c0,11.52.2,21.66.46,30,.32,10.13.72,17.5,1,21.24C1445.9,1068.76,1446,1069.76,1446,1069.8Z" transform="translate(-143.19 -282.1)"/><path class="cls-5" d="M800.45,417.09c9.46-33,22.72-62.22,40.22-82.45a103.16,103.16,0,0,1,17-15.79,68,68,0,0,0-11.7-8.49,59.68,59.68,0,0,0-6.68-3.26A124.94,124.94,0,0,0,829,316.83c-16.28,17.36-28.64,39.66-38.3,64.54C776.21,418.7,767.84,462,763,504s-6.17,82.64-6.17,114.47c0,13.49.24,25.35.54,35.09H778c-.31-9.66-.55-21.54-.55-35.09C777.39,564.06,781.41,483.15,800.45,417.09Z" transform="translate(-143.19 -282.1)"/><path class="cls-5" d="M769.69,691.24a10.31,10.31,0,0,0,9.53-11h0s0-.34-.07-1.07c0-.32,0-.7-.07-1.14a15.08,15.08,0,0,0-20.63.53c.13,2,.21,3.15.21,3.19A10.32,10.32,0,0,0,769.69,691.24Z" transform="translate(-143.19 -282.1)"/><path class="cls-5" d="M1011.79,680.24a10.31,10.31,0,0,0,20.57,1.43s.08-1.22.21-3.38a15.05,15.05,0,0,0-20.65,0c0,.23,0,.52,0,.71Z" transform="translate(-143.19 -282.1)"/><path class="cls-5" d="M907.19,302.72a58.46,58.46,0,0,1,29.45,7.64,77,77,0,0,1,21.21,18.39c11.37,13.79,20.88,32.84,28.41,55.05,11.34,33.32,18.31,73.59,22.35,113.46s5.21,79.38,5.21,111.4c0,17.64-.35,33-.77,44.89h20.63c.41-12,.75-27.32.75-44.89,0-56.66-3.5-136.24-20.24-202.79-8.42-33.29-20.08-63.42-37.15-86.07-8.55-11.3-18.54-20.75-30.24-27.38a79.22,79.22,0,0,0-39.61-10.32,102.8,102.8,0,0,0-46.29,10.58c-.8.4-1.54.88-2.32,1.3a92.87,92.87,0,0,1,17.9,14.43A83,83,0,0,1,907.19,302.72Z" transform="translate(-143.19 -282.1)"/><path class="cls-9" d="M1166,1044.24a95.27,95.27,0,0,1,13.54-4.24l-7.43-314.08a4.13,4.13,0,1,1,8.25-.19l7.39,312.62a109.75,109.75,0,0,1,17.19-1.41c2.59,0,5.11.17,7.61.39l-38-383.78-21.65,397.31A94.1,94.1,0,0,1,1166,1044.24Z" transform="translate(-143.19 -282.1)"/><path class="cls-9" d="M1195.22,1085.29a122.74,122.74,0,0,1,19.83-23.08l-.69-6.93a65.59,65.59,0,0,0-9.39-.73,91.92,91.92,0,0,0-16.77,1.5l.92,39.19C1191.05,1091.84,1193.07,1088.51,1195.22,1085.29Z" transform="translate(-143.19 -282.1)"/><path class="cls-9" d="M1161.2,1180.65c4.12-23.92,10.42-48,20-69.58L1180,1058a77,77,0,0,0-7.32,2.56,78.48,78.48,0,0,0-21,12.79l-12,220.82h14.57c-.19-5.93-.32-12.75-.32-20.31C1153.92,1248.29,1155.38,1214.63,1161.2,1180.65Z" transform="translate(-143.19 -282.1)"/><path class="cls-9" d="M1171.53,1273.85c0,7.59.14,14.42.32,20.31h13.73L1182.5,1164C1173.68,1202.55,1171.51,1243.94,1171.53,1273.85Z" transform="translate(-143.19 -282.1)"/><path class="cls-9" d="M1191.05,1133.89c-.33.94-.62,1.91-.94,2.85l3.72,157.42H1238l-20.7-208.94C1206.3,1098.39,1197.61,1115.17,1191.05,1133.89Z" transform="translate(-143.19 -282.1)"/><path class="cls-10" d="M1189.12,1095.24l-.92-39.19A80,80,0,0,0,1180,1058l1.26,53.08C1183.67,1105.64,1186.25,1100.32,1189.12,1095.24Z" transform="translate(-143.19 -282.1)"/><path class="cls-10" d="M1180.39,725.73a4.13,4.13,0,1,0-8.25.19l7.43,314.08c2.68-.65,5.41-1.21,8.21-1.65Z" transform="translate(-143.19 -282.1)"/><path class="cls-10" d="M1182.5,1164l3.08,130.2h8.25l-3.72-157.42A280,280,0,0,0,1182.5,1164Z" transform="translate(-143.19 -282.1)"/><path class="cls-3" d="M603.94,897.64c-4.76-38.88-13.13-77.09-26.65-105.1-9-18.72-20.14-32.61-33.19-40a51.47,51.47,0,0,0-7.26-3.31l-5.17,80.22c.42,1.56.86,3.1,1.26,4.68C547.23,891,550.2,959,550.22,1007.39c0,15-.29,28.08-.64,38.35h59.8c.35-10.19.65-23.28.65-38.35C610,976.14,608.73,936.53,603.94,897.64Z" transform="translate(-143.19 -282.1)"/><path class="cls-3" d="M527,902l-9.26,143.79H532c.35-10.19.65-23.28.65-38.35C532.61,977.29,531.37,939.45,527,902Z" transform="translate(-143.19 -282.1)"/><path class="cls-3" d="M1147.55,1077c-14.78,14-25.9,34.06-33.92,56.93-16.09,45.71-19.55,102.07-19.51,140,0,7.59.13,14.42.32,20.31h45.23l12-220.82C1150.3,1074.52,1148.89,1075.69,1147.55,1077Z" transform="translate(-143.19 -282.1)"/><path class="cls-9" d="M930.74,691.24a10.3,10.3,0,0,1-9.57-11s0-.42.08-1.28c0-.23,0-.56,0-.84a15.18,15.18,0,1,0,20.64.28c-.12,2.1-.2,3.24-.2,3.27A10.32,10.32,0,0,1,930.74,691.24Z" transform="translate(-143.19 -282.1)"/><path class="cls-9" d="M688.6,680.2h0A10.31,10.31,0,1,1,668,681.71s-.09-1.22-.22-3.3a15.22,15.22,0,1,0,20.64-.29c0,.38,0,.73.06,1C688.57,679.86,688.6,680.2,688.6,680.2Z" transform="translate(-143.19 -282.1)"/><path class="cls-8" d="M668,681.71a10.31,10.31,0,1,0,20.56-1.51h0s0-.34-.08-1.07c0-.28,0-.63-.06-1-.24-3.73-.73-12.34-1.12-24.57-.3-9.66-.55-21.55-.55-35.1,0-54.4,4-135.3,23-201.37,9.47-33,22.73-62.21,40.23-82.44,8.75-10.14,18.48-18.07,29.4-23.5a82.08,82.08,0,0,1,37.11-8.42,59,59,0,0,1,22.77,4.38,59.68,59.68,0,0,1,6.68,3.26,68,68,0,0,1,11.7,8.49,90,90,0,0,1,9.52,9.9c11.37,13.79,20.87,32.84,28.41,55.05C907,417.12,913.94,457.39,918,497.26s5.21,79.38,5.21,111.4c0,17.64-.35,33-.76,44.89-.08,2.42-.17,4.75-.25,6.88-.26,6.31-.51,11.28-.7,14.67-.07,1.26-.13,2.22-.18,3,0,.28,0,.61,0,.84,0,.86-.08,1.28-.08,1.28a10.31,10.31,0,1,0,20.57,1.43s.08-1.17.2-3.27c.26-4.37.72-13,1.12-24.85.4-12,.75-27.32.75-44.89,0-56.66-3.5-136.24-20.24-202.79-8.43-33.29-20.08-63.42-37.16-86.07a117.25,117.25,0,0,0-9.93-11.39A92.87,92.87,0,0,0,858.58,294c-.81-.5-1.57-1.09-2.4-1.56a79.23,79.23,0,0,0-39.62-10.32,102.87,102.87,0,0,0-46.29,10.58,112.59,112.59,0,0,0-31.93,24.15c-16.27,17.36-28.64,39.66-38.29,64.54C685.59,418.7,677.22,462,672.35,504s-6.17,82.65-6.17,114.47c0,13.5.24,25.36.54,35.1.37,11.86.84,20.48,1.1,24.86C668,680.49,668,681.67,668,681.71Z" transform="translate(-143.19 -282.1)"/><path class="cls-5" d="M1282.39,1054.55a60.45,60.45,0,0,1,25.79,5.46c10.77,5,20,13.4,27.79,24.49,1.76,2.5,3.48,5.1,5.11,7.87,13.3,22.54,21.61,53.52,26.34,85.16s6.06,64,6.06,89.46c0,10.35-.22,19.55-.49,27.17h17.62c.27-7.68.48-16.86.48-27.17,0-39.79-3-95.67-17.42-142.7-7.26-23.51-17.38-44.94-32.17-61-1.12-1.21-2.32-2.33-3.5-3.48a80.72,80.72,0,0,0-22.41-15.76,78,78,0,0,0-33.2-7.1,102.18,102.18,0,0,0-39,7.3c-.9.36-1.74.81-2.62,1.2a80.84,80.84,0,0,1,17.68,12.29A88,88,0,0,1,1282.39,1054.55Z" transform="translate(-143.19 -282.1)"/><path class="cls-5" d="M1371.76,1316.83a8.81,8.81,0,0,0,17.55,1.49s.09-1.11.22-3a12.85,12.85,0,0,0-17.65-.08c0,.25,0,.52-.05.71C1371.78,1316.55,1371.76,1316.83,1371.76,1316.83Z" transform="translate(-143.19 -282.1)"/><path class="cls-5" d="M1165.08,1326.34a8.79,8.79,0,0,0,8-9.55h0s0-.23-.06-.73c0-.27,0-.63-.08-1a12.86,12.86,0,0,0-17.62.5c.13,1.78.22,2.79.22,2.84A8.8,8.8,0,0,0,1165.08,1326.34Z" transform="translate(-143.19 -282.1)"/><path class="cls-5" d="M1182.5,1164a280,280,0,0,1,7.61-27.22c.32-.94.61-1.91.94-2.85,6.56-18.72,15.25-35.5,26.27-48.67A98.93,98.93,0,0,1,1225,1077a83.25,83.25,0,0,1,15.25-11.44,59,59,0,0,0-9.45-5.51,57.63,57.63,0,0,0-9.15-3.24c-2.27,1.72-4.45,3.54-6.56,5.44a122.74,122.74,0,0,0-19.83,23.08c-2.15,3.22-4.17,6.55-6.1,10-2.87,5.08-5.45,10.4-7.87,15.83-9.63,21.61-15.93,45.66-20,69.58-5.82,34-7.28,67.64-7.28,93.2,0,7.56.13,14.38.32,20.31h17.61c-.18-5.89-.32-12.72-.32-20.31C1171.51,1243.94,1173.68,1202.55,1182.5,1164Z" transform="translate(-143.19 -282.1)"/><polygon class="cls-11" points="1367.61 1012.06 1312.91 1546.81 1389.98 1502.68 1467.06 1546.81 1367.61 1012.06"/><polygon class="cls-1" points="1312.91 1546.81 1467.06 1546.81 1389.98 1502.68 1312.91 1546.81"/><path class="cls-12" d="M1529.65,1771.7a3.52,3.52,0,1,0,7-.36l-20.93-415.61a3.52,3.52,0,1,0-7,.35Z" transform="translate(-143.19 -282.1)"/><path class="cls-11" d="M1302.37,1326.35a8.8,8.8,0,0,1-8-9.52s0-.28.07-.88c0-.22,0-.52.06-.82a13,13,0,1,0,17.64.29c-.13,1.82-.22,2.86-.22,2.9A8.81,8.81,0,0,1,1302.37,1326.35Z" transform="translate(-143.19 -282.1)"/><path class="cls-11" d="M1095.65,1316.79h0a8.81,8.81,0,0,1-17.54,1.57s-.1-1.09-.23-2.93a13,13,0,1,0,17.63-.3c0,.36.06.68.08.93C1095.63,1316.56,1095.65,1316.79,1095.65,1316.79Z" transform="translate(-143.19 -282.1)"/><path class="cls-8" d="M1187.78,1038.35c-2.8.44-5.53,1-8.21,1.65a95.27,95.27,0,0,0-13.54,4.24,94.1,94.1,0,0,0-13.11,6.62c-14.19,8.55-25.8,20.52-35.12,34.43-18.06,27-28.16,61.38-34,95.36s-7.28,67.64-7.29,93.2c0,7.56.14,14.38.32,20.31.31,10,.78,17.45,1.06,21.27.13,1.84.22,2.88.23,2.93a8.81,8.81,0,0,0,17.54-1.57h0s0-.23-.06-.73c0-.25,0-.57-.08-.93-.23-3.13-.74-10.54-1.07-21-.19-5.89-.32-12.72-.32-20.31,0-37.89,3.42-94.25,19.51-140,8-22.87,19.14-42.93,33.92-56.93,1.34-1.27,2.75-2.44,4.15-3.62a78.48,78.48,0,0,1,21-12.79A77,77,0,0,1,1180,1058a80,80,0,0,1,8.21-1.94,91.92,91.92,0,0,1,16.77-1.5,65.59,65.59,0,0,1,9.39.73,59.24,59.24,0,0,1,7.25,1.49,57.63,57.63,0,0,1,9.15,3.24,59,59,0,0,1,9.45,5.51c9,6.43,16.81,15.54,23.46,26.85,13.29,22.54,21.61,53.52,26.33,85.16s6.06,64,6.06,89.46c0,10.35-.21,19.55-.49,27.17-.12,3.27-.25,6.28-.38,8.91-.21,4.39-.43,7.86-.59,10.21,0,.74-.09,1.33-.13,1.85,0,.3,0,.6-.06.82-.05.6-.07.88-.07.88a8.81,8.81,0,0,0,17.55,1.49s.09-1.08.22-2.9c.27-3.8.73-11.21,1.08-21.26.27-7.68.48-16.86.48-27.17,0-39.79-3-95.67-17.41-142.7-7.26-23.51-17.38-44.94-32.17-61-1.79-1.94-3.66-3.79-5.59-5.55a80.84,80.84,0,0,0-17.68-12.29c-.89-.46-1.73-1-2.64-1.4a76.57,76.57,0,0,0-25.6-6.71c-2.5-.22-5-.39-7.61-.39A109.75,109.75,0,0,0,1187.78,1038.35Z" transform="translate(-143.19 -282.1)"/><path class="cls-5" d="M518.94,746.05a50.59,50.59,0,0,1,17.9,3.21,51.47,51.47,0,0,1,7.26,3.31c13,7.36,24.2,21.25,33.19,40,13.52,28,21.89,66.22,26.65,105.1s6.09,78.5,6.09,109.75c0,15.07-.3,28.16-.65,38.35H627c.34-10.27.64-23.34.64-38.35,0-48.4-3-116.38-17.29-173.23-7.2-28.43-17.16-54.17-31.74-73.52-7.3-9.66-15.84-17.72-25.83-23.39A66.72,66.72,0,0,0,538,731.08a68.9,68.9,0,0,0-19.07-2.64,87.7,87.7,0,0,0-39.54,9c-.68.34-1.31.76-2,1.11a79.82,79.82,0,0,1,15.29,12.33A70.94,70.94,0,0,1,518.94,746.05Z" transform="translate(-143.19 -282.1)"/><path class="cls-5" d="M401.48,1077.94a8.82,8.82,0,0,0,8.15-9.43h0s0-.29-.07-.92c0-.26,0-.59-.06-1a12.85,12.85,0,0,0-17.62.46c.11,1.72.18,2.68.18,2.72A8.8,8.8,0,0,0,401.48,1077.94Z" transform="translate(-143.19 -282.1)"/><path class="cls-5" d="M427.76,843.75c8.08-28.22,19.41-53.15,34.36-70.44a87.87,87.87,0,0,1,14.56-13.48,58.07,58.07,0,0,0-10-7.26,52.73,52.73,0,0,0-5.71-2.78c-11.8,10-21.57,22.85-29.6,37.49-17.83,32.56-27.84,74.06-33.66,115.28s-7.24,82.13-7.24,113.21c0,11.52.21,21.66.46,30h17.63c-.27-8.25-.48-18.4-.48-30C408.06,969.29,411.5,900.18,427.76,843.75Z" transform="translate(-143.19 -282.1)"/><path class="cls-5" d="M608.3,1068.55a8.81,8.81,0,1,0,17.57,1.21s.07-1,.18-2.88a12.84,12.84,0,0,0-17.64,0c0,.2,0,.45,0,.61C608.32,1068.19,608.3,1068.54,608.3,1068.55Z" transform="translate(-143.19 -282.1)"/><polygon class="cls-13" points="604.16 763.64 549.46 1546.81 626.53 1502.68 703.61 1546.81 604.16 763.64"/><polygon class="cls-2" points="549.46 1546.81 703.61 1546.81 626.53 1502.68 549.46 1546.81"/><path class="cls-14" d="M766.2,1771.63a3.52,3.52,0,1,0,7-.22l-20.92-664a3.52,3.52,0,1,0-7,.23Z" transform="translate(-143.19 -282.1)"/><path class="cls-7" d="M539.06,1077.94a8.81,8.81,0,0,1-8.18-9.39s0-.36.07-1.1c0-.19,0-.48,0-.71a13,13,0,1,0,17.63.23c-.11,1.79-.18,2.77-.18,2.79A8.8,8.8,0,0,1,539.06,1077.94Z" transform="translate(-143.19 -282.1)"/><path class="cls-7" d="M332.21,1068.51h0a8.8,8.8,0,1,1-17.56,1.29s-.08-1-.19-2.82a13,13,0,1,0,17.63-.25c0,.32,0,.63.06.86C332.19,1068.22,332.21,1068.51,332.21,1068.51Z" transform="translate(-143.19 -282.1)"/><path class="cls-8" d="M314.65,1069.8a8.8,8.8,0,1,0,17.56-1.29h0s0-.29-.06-.92c0-.23,0-.54-.06-.86-.2-3.18-.62-10.54-.95-21-.26-8.25-.47-18.4-.47-30,0-46.47,3.41-115.58,19.67-172,8.09-28.21,19.41-53.14,34.36-70.43a80.69,80.69,0,0,1,25.12-20.06,70,70,0,0,1,31.71-7.2A50.3,50.3,0,0,1,461,749.79a52.73,52.73,0,0,1,5.71,2.78,58.07,58.07,0,0,1,10,7.26c8.82,7.86,16.6,19,23.2,32.71,13.51,28,21.88,66.22,26.64,105.1.18,1.43.32,2.87.49,4.31,4.36,37.5,5.6,75.34,5.6,105.44,0,15.07-.3,28.16-.65,38.35-.07,2.07-.14,4.06-.22,5.88-.21,5.39-.43,9.64-.59,12.53-.06,1.08-.11,1.9-.15,2.59,0,.23,0,.52,0,.71,0,.74-.07,1.09-.07,1.1a8.81,8.81,0,1,0,17.57,1.21s.07-1,.18-2.79c.22-3.73.61-11.13,1-21.23.35-10.27.64-23.34.64-38.35,0-48.4-3-116.38-17.29-173.23-.4-1.58-.84-3.12-1.26-4.68-7.09-26.56-16.7-50.57-30.48-68.84a100.7,100.7,0,0,0-8.48-9.73,79.82,79.82,0,0,0-15.29-12.33c-.7-.42-1.35-.93-2.06-1.33a67.62,67.62,0,0,0-33.83-8.81,87.75,87.75,0,0,0-39.55,9c-20.57,10.24-36.14,28.15-48,49.81-17.82,32.56-27.84,74.06-33.65,115.28s-7.24,82.13-7.24,113.2c0,11.53.2,21.67.46,30,.32,10.13.71,17.5.94,21.24C314.57,1068.76,314.64,1069.76,314.65,1069.8Z" transform="translate(-143.19 -282.1)"/></svg>